<svg width="92" height="66" viewBox="0 0 92 66" fill="none" xmlns="http://www.w3.org/2000/svg">
<path d="M38.5002 19.577C38.5002 24.9485 39.4606 30.2741 40.5653 35.2189C40.9277 36.8409 41.3043 38.4169 41.6681 39.9397C42.4191 43.083 43.116 45.9998 43.5226 48.6271C44.1283 52.5399 44.0535 55.6253 42.6783 57.7313C41.3301 59.796 38.615 61.077 33.5002 61.077C28.4948 61.077 23.9313 58.6785 19.8797 54.68C15.8261 50.6795 12.3164 45.1059 9.43799 38.8419C3.67967 26.3104 0.500076 11.1313 0.500076 0.577026C0.500076 -4.70164 1.29629 -8.25101 2.74892 -10.633C4.18547 -12.9885 6.30074 -14.261 9.09663 -14.9095C11.9168 -15.5637 15.3954 -15.5747 19.5089 -15.4135C20.6667 -15.3681 21.8739 -15.3091 23.1275 -15.2479C26.2941 -15.0932 29.7563 -14.9241 33.4646 -14.923C36.4923 -14.4889 38.8272 -13.9539 40.6015 -13.3158C42.3845 -12.6746 43.5716 -11.9397 44.3299 -11.1267C45.8019 -9.5485 45.7909 -7.51608 44.9586 -4.72706C44.5444 -3.33902 43.9399 -1.80765 43.256 -0.104759C43.2006 0.0331802 43.1447 0.172192 43.0884 0.312273C42.452 1.8948 41.7607 3.61382 41.1141 5.46531C39.7051 9.50013 38.5002 14.1853 38.5002 19.577Z" fill="#0050C8" stroke="#0066FF"/>
<path d="M27.9495 8.77903V8.74121L27.9438 8.70382C26.829 1.37682 27.9868 -3.18629 30.5174 -5.98517C33.058 -8.79518 37.0952 -9.9558 42.0456 -10.2025C46.9875 -10.4487 52.7247 -9.7801 58.5592 -9.04149C58.989 -8.98709 59.4192 -8.9323 59.8497 -8.87749C65.2296 -8.19252 70.6422 -7.50339 75.4643 -7.5C81.529 -6.62973 85.3072 -5.07511 87.6081 -2.97255C89.8926 -0.884904 90.7856 1.80408 90.9381 5.11192C91.0852 8.30237 90.5417 12.0055 89.9232 16.2192C89.896 16.4043 89.8687 16.5904 89.8413 16.7775C89.1929 21.2037 88.5001 26.1439 88.5001 31.5C88.5001 41.791 80.4259 47.1728 70.6692 51.5804C68.3354 52.6348 65.9214 53.6266 63.5157 54.615L63.224 54.7348C60.7253 55.7616 58.2393 56.7873 55.8846 57.8719C51.2695 59.9977 47.0992 62.3752 44.2773 65.4986C39.3942 65.4354 35.9555 63.2899 33.5094 59.7643C31.0059 56.1559 29.5361 51.0879 28.7032 45.292C27.4531 36.5931 27.654 26.4157 27.8327 17.3639C27.8923 14.3448 27.9495 11.451 27.9495 8.77903Z" fill="#0050C8" stroke="#0066FF"/>
</svg>
