<svg width="20" height="24" viewBox="0 0 20 24" fill="none" xmlns="http://www.w3.org/2000/svg">
<path fill-rule="evenodd" clip-rule="evenodd" d="M10.875 1.52797C10.875 1.02927 10.4832 0.625 10 0.625C9.51675 0.625 9.125 1.02927 9.125 1.52797V1.88307C8.60288 1.94606 8.08597 2.06152 7.58278 2.22905C4.96176 3.10169 2.9135 5.29063 2.18816 8.04021L2.13586 8.23846C1.70248 9.88128 1.60774 11.5988 1.85676 13.2802C0.962001 13.9284 0.375 15.0026 0.375 16.2193C0.375 17.9265 1.54034 19.3974 3.16165 19.7367L3.59051 19.8264C4.30576 19.9761 5.02471 20.1004 5.7461 20.1995C5.7528 20.2299 5.75978 20.2603 5.76704 20.2906L5.86267 20.69C6.24084 22.2697 7.44228 23.4991 8.97614 23.876C9.64931 24.0413 10.3507 24.0413 11.0239 23.876C12.5577 23.4991 13.7592 22.2697 14.1373 20.69L14.233 20.2906C14.2402 20.2603 14.2472 20.2299 14.2539 20.1995C14.9753 20.1004 15.6942 19.9761 16.4095 19.8264L16.8384 19.7367C18.4597 19.3974 19.625 17.9265 19.625 16.2193C19.625 15.0029 19.0382 13.9288 18.1438 13.2806C18.3962 11.6143 18.3117 9.9114 17.8948 8.27928L17.8219 7.99421C17.1288 5.28081 15.1513 3.11421 12.5681 2.23795C12.0164 2.05079 11.4483 1.92774 10.875 1.86826V1.52797ZM9.38147 22.1191C8.53109 21.9102 7.85551 21.2529 7.59954 20.3979C9.19762 20.521 10.8024 20.521 12.4005 20.3979C12.1445 21.2529 11.4689 21.9102 10.6185 22.1191C10.2119 22.219 9.78814 22.219 9.38147 22.1191Z" fill="white"/>
</svg>
