<svg width="300" height="127" viewBox="0 0 300 127" fill="none" xmlns="http://www.w3.org/2000/svg">
<g filter="url(#filter0_i_79_212)">
<path d="M327.237 27.9711C269.549 56.5 252.049 122 154.737 127C57.5344 127 -130.451 58.5 -55.9512 -7C-55.9512 -74.6549 49.5344 -119 146.737 -119C243.939 -119 327.237 -39.6838 327.237 27.9711Z" fill="#0066FF"/>
</g>
<path d="M-55.621 -6.6245L-55.4512 -6.77383V-7C-55.4512 -40.5396 -29.2981 -68.4097 9.16813 -87.9247C47.6097 -107.427 98.2022 -118.5 146.737 -118.5C195.203 -118.5 240.216 -98.7242 273.112 -70.5055C305.918 -42.3641 326.609 -5.88641 326.736 27.6613C312.38 34.8064 300.511 44.2278 289.295 54.4066C284.543 58.7186 279.905 63.1706 275.245 67.643C274.37 68.4822 273.495 69.3222 272.618 70.1621C267.066 75.4803 261.446 80.7982 255.518 85.9309C231.832 106.442 203.235 124.005 154.724 126.5C106.207 126.497 34.995 109.394 -14.7692 84.1167C-39.6665 71.4705 -59.1026 56.8239 -67.6927 41.3279C-71.9785 33.5964 -73.555 25.6717 -71.7864 17.6714C-70.0162 9.66362 -64.8805 1.51641 -55.621 -6.6245Z" stroke="#3F99F2" stroke-opacity="0.6"/>
<defs>
<filter id="filter0_i_79_212" x="-73" y="-119" width="400.237" height="250" filterUnits="userSpaceOnUse" color-interpolation-filters="sRGB">
<feFlood flood-opacity="0" result="BackgroundImageFix"/>
<feBlend mode="normal" in="SourceGraphic" in2="BackgroundImageFix" result="shape"/>
<feColorMatrix in="SourceAlpha" type="matrix" values="0 0 0 0 0 0 0 0 0 0 0 0 0 0 0 0 0 0 127 0" result="hardAlpha"/>
<feOffset dy="4"/>
<feGaussianBlur stdDeviation="6.55"/>
<feComposite in2="hardAlpha" operator="arithmetic" k2="-1" k3="1"/>
<feColorMatrix type="matrix" values="0 0 0 0 0 0 0 0 0 0 0 0 0 0 0 0 0 0 0.25 0"/>
<feBlend mode="normal" in2="shape" result="effect1_innerShadow_79_212"/>
</filter>
</defs>
</svg>
