<svg width="72" height="70" viewBox="0 0 72 70" fill="none" xmlns="http://www.w3.org/2000/svg">
<path d="M32.86 32.4528C30.091 32.4528 27.3843 31.6545 25.082 30.1589C22.7797 28.6633 20.9853 26.5375 19.9256 24.0504C18.866 21.5633 18.5888 18.8266 19.129 16.1863C19.6692 13.546 21.0025 11.1207 22.9605 9.21715C24.9184 7.31361 27.413 6.01727 30.1287 5.49208C32.8444 4.9669 35.6594 5.23644 38.2175 6.26664C40.7757 7.29683 42.9622 9.0414 44.5005 11.2797C46.0389 13.5181 46.86 16.1496 46.86 18.8417C46.86 22.4516 45.385 25.9136 42.7595 28.4662C40.1339 31.0188 36.573 32.4528 32.86 32.4528ZM32.86 9.275C30.8821 9.275 28.9487 9.84519 27.3043 10.9135C25.6598 11.9818 24.378 13.5002 23.6212 15.2767C22.8643 17.0532 22.6663 19.008 23.0521 20.8939C23.438 22.7799 24.3904 24.5122 25.7889 25.8719C27.1874 27.2315 28.9692 28.1575 30.9091 28.5326C32.8489 28.9078 34.8595 28.7152 36.6868 27.9794C38.5141 27.2435 40.0758 25.9974 41.1747 24.3986C42.2735 22.7998 42.86 20.9201 42.86 18.9972C42.86 17.7205 42.6013 16.4562 42.0988 15.2767C41.5962 14.0971 40.8596 13.0254 39.931 12.1226C39.0024 11.2198 37.9 10.5036 36.6868 10.0151C35.4735 9.52647 34.1732 9.275 32.86 9.275ZM44 34.8056C33.1768 32.4378 21.854 33.5782 11.76 38.0528C10.3717 38.6975 9.20048 39.7123 8.38256 40.9791C7.56463 42.246 7.13371 43.7126 7.13996 45.2083V56.7778C7.13996 57.0331 7.19169 57.286 7.2922 57.5219C7.39271 57.7578 7.54003 57.9721 7.72575 58.1527C7.91146 58.3333 8.13194 58.4765 8.37459 58.5742C8.61724 58.6719 8.87732 58.7222 9.13996 58.7222C9.4026 58.7222 9.66268 58.6719 9.90533 58.5742C10.148 58.4765 10.3685 58.3333 10.5542 58.1527C10.7399 57.9721 10.8872 57.7578 10.9877 57.5219C11.0882 57.286 11.14 57.0331 11.14 56.7778V45.2083C11.1225 44.4514 11.3328 43.7059 11.7449 43.0635C12.157 42.421 12.7531 41.9095 13.46 41.5917C19.5405 38.8621 26.1626 37.4616 32.86 37.4889C36.6126 37.4842 40.3524 37.9151 44 38.7722V34.8056ZM44.28 53.2972H56.56V56.0194H44.28V53.2972Z" fill="#1976D2"/>
<path d="M66.3401 41.7472H56.0001V45.6361H64.3401V61.9111H36.0001V45.6361H48.6001V46.4528C48.6001 46.9685 48.8108 47.4631 49.1859 47.8277C49.5609 48.1924 50.0696 48.3972 50.6001 48.3972C51.1305 48.3972 51.6392 48.1924 52.0143 47.8277C52.3893 47.4631 52.6001 46.9685 52.6001 46.4528V38.8889C52.6001 38.3732 52.3893 37.8786 52.0143 37.514C51.6392 37.1493 51.1305 36.9444 50.6001 36.9444C50.0696 36.9444 49.5609 37.1493 49.1859 37.514C48.8108 37.8786 48.6001 38.3732 48.6001 38.8889V41.7472H34.0001C33.4696 41.7472 32.9609 41.9521 32.5858 42.3167C32.2108 42.6814 32.0001 43.176 32.0001 43.6917V63.8556C32.0001 64.3713 32.2108 64.8658 32.5858 65.2305C32.9609 65.5951 33.4696 65.8 34.0001 65.8H66.3401C66.8705 65.8 67.3792 65.5951 67.7543 65.2305C68.1293 64.8658 68.3401 64.3713 68.3401 63.8556V43.6917C68.3401 43.176 68.1293 42.6814 67.7543 42.3167C67.3792 41.9521 66.8705 41.7472 66.3401 41.7472Z" fill="#1976D2"/>
</svg>
