<svg width="75" height="60" viewBox="0 0 75 60" fill="none" xmlns="http://www.w3.org/2000/svg">
<ellipse cx="40.5" cy="6.5" rx="37.5" ry="38.5" fill="#0050C8"/>
<path d="M82 21.2239C82 31.6602 76.7863 39.3895 68.9912 44.5301C61.1805 49.6811 50.7826 52.2239 40.5 52.2239C35.2548 52.2239 30.0835 53.3482 25.2999 54.6856C23.2823 55.2497 21.349 55.8466 19.5068 56.4153C16.9446 57.2063 14.5589 57.9428 12.3684 58.461C8.59592 59.3534 5.66357 59.5227 3.67545 58.3139C1.73186 57.1321 0.5 54.4977 0.5 49.2239C0.5 28.2246 17.0778 11.2239 37.5 11.2239C42.7148 11.2239 48.1471 10.5466 53.3332 9.87024C53.5988 9.83561 53.8637 9.80098 54.1279 9.76645C59.038 9.12461 63.6957 8.51576 67.7684 8.5003C72.0689 8.48398 75.6125 9.1325 78.0782 11.0107C80.5137 12.8659 82 16.004 82 21.2239Z" fill="#0050C8" stroke="#0066FF"/>
</svg>
