<svg width="18" height="17" viewBox="0 0 18 17" fill="none" xmlns="http://www.w3.org/2000/svg">
<path d="M1 14.125C1 13.1304 1.42143 12.1766 2.17157 11.4733C2.92172 10.7701 3.93913 10.375 5 10.375H13C14.0609 10.375 15.0783 10.7701 15.8284 11.4733C16.5786 12.1766 17 13.1304 17 14.125C17 14.6223 16.7893 15.0992 16.4142 15.4508C16.0391 15.8025 15.5304 16 15 16H3C2.46957 16 1.96086 15.8025 1.58579 15.4508C1.21071 15.0992 1 14.6223 1 14.125Z" fill="#CDCDCD" stroke="#CDCDCD" stroke-linejoin="round"/>
<path d="M9 6.625C10.6569 6.625 12 5.3658 12 3.8125C12 2.2592 10.6569 1 9 1C7.34315 1 6 2.2592 6 3.8125C6 5.3658 7.34315 6.625 9 6.625Z" fill="#CDCDCD" stroke="#CDCDCD"/>
</svg>
