<svg width="72" height="70" viewBox="0 0 72 70" fill="none" xmlns="http://www.w3.org/2000/svg">
<path d="M63.7116 15.4246L36.7116 6.67461C36.2497 6.52492 35.7503 6.52492 35.2884 6.67461L8.28844 15.4246C7.84042 15.5698 7.45075 15.8484 7.17464 16.2209C6.89853 16.5934 6.74997 17.0409 6.75 17.5V39.375C6.75 39.9552 6.98705 40.5116 7.40901 40.9218C7.83097 41.332 8.40326 41.5625 9 41.5625C9.59674 41.5625 10.169 41.332 10.591 40.9218C11.0129 40.5116 11.25 39.9552 11.25 39.375V20.5352L20.6972 23.5949C18.1872 27.5374 18.3511 32.2984 19.44 36.8125C20.5289 41.3266 22.4538 45.2247 26.505 47.6711C21.4425 49.6016 17.0662 53.0934 13.8656 57.8676C13.6992 58.1081 13.5835 58.3784 13.5255 58.6628C13.4674 58.9471 13.4681 59.2398 13.5274 59.5239C13.5867 59.808 13.7035 60.0779 13.8711 60.3177C14.0386 60.5575 14.2535 60.7626 14.5032 60.9209C14.753 61.0793 15.0326 61.1878 15.3259 61.2402C15.6192 61.2926 15.9202 61.2878 16.2116 61.226C16.5029 61.1643 16.7787 61.0469 17.023 60.8806C17.2672 60.7143 17.4751 60.5025 17.6344 60.2574C21.8728 53.9356 28.5666 48.3 36 48.3C43.4334 48.3 50.1272 53.9356 54.3656 60.2574C54.6956 60.7343 55.2054 61.0657 55.7848 61.1801C56.3641 61.2944 56.9665 61.1825 57.4616 60.8685C57.9568 60.5545 58.3049 60.0637 58.4308 59.5021C58.5567 58.9406 58.4502 58.3534 58.1344 57.8676C54.9337 53.0934 50.5406 49.6016 45.495 47.6711C49.5423 45.2248 52.4265 41.3179 53.5153 36.8071C54.604 32.2963 53.8083 27.5499 51.3028 23.6086L63.7116 19.5891C64.1597 19.4439 64.5494 19.1654 64.8257 18.7929C65.1019 18.4204 65.2505 17.9729 65.2505 17.5137C65.2505 17.0545 65.1019 16.6069 64.8257 16.2344C64.5494 15.8619 64.1597 15.5834 63.7116 15.4383V15.4246ZM49.5 32.8125C49.5006 34.8875 48.9952 36.9331 48.0252 38.7814C47.0552 40.6297 45.6482 42.2281 43.9198 43.4454C42.1914 44.6627 40.1907 45.4642 38.082 45.7842C35.9732 46.1042 33.8165 45.9336 31.7887 45.2863C29.7609 44.639 27.9199 43.5335 26.4167 42.0605C24.9134 40.5875 23.7908 38.789 23.141 36.8125C22.4911 34.836 22.3326 32.7379 22.6783 30.6903C23.024 28.6427 23.8641 26.704 25.1297 25.0332L35.2884 28.3145C35.7503 28.4642 36.2497 28.4642 36.7116 28.3145L46.8703 25.0332C48.5797 27.2863 49.5014 30.0128 49.5 32.8125ZM36 23.9449L16.1156 17.5L36 11.0551L55.8844 17.5L36 23.9449Z" fill="#1976D2"/>
</svg>
