<?xml version="1.0" encoding="UTF-8"?>
<!DOCTYPE svg PUBLIC "-//W3C//DTD SVG 1.1//EN" "http://www.w3.org/Graphics/SVG/1.1/DTD/svg11.dtd">
<!-- Creator: CorelDRAW X5 -->
<svg xmlns="http://www.w3.org/2000/svg" xml:space="preserve" width="110.256mm" height="130mm" style="shape-rendering:geometricPrecision; text-rendering:geometricPrecision; image-rendering:optimizeQuality; fill-rule:evenodd; clip-rule:evenodd"
viewBox="0 0 11026 13000"
 xmlns:xlink="http://www.w3.org/1999/xlink"
 xmlns:svg="http://www.w3.org/2000/svg">
 <defs>
  <style type="text/css">
   <![CDATA[
    .fil0 {fill:#DAAE43}
   ]]>
  </style>
 </defs>
 <g id="Layer_x0020_1">
  <metadata id="CorelCorpID_0Corel-Layer"/>
 </g>
 <g id="svg2">
  <metadata id="CorelCorpID_1Corel-Layer"/>
  <path class="fil0" d="M5259 580l0 -163c110,-126 190,-261 254,-417 65,155 144,291 254,417l0 163 -127 140 -127 -140 -127 140 -127 -140z"/>
  <path class="fil0" d="M8662 5789c-144,15 -477,115 -612,167 109,-183 435,-333 625,-413 274,-116 653,-204 954,-333 168,-72 302,-177 418,-286 246,-231 432,-567 463,-907 104,251 203,551 174,819 -29,270 -121,425 -331,618 -199,182 -444,286 -750,336 -310,51 -631,-32 -940,0zm-3150 3738c-309,-328 -557,-648 -1052,-697 -505,-50 -747,278 -1102,625 -282,276 -528,400 -936,366 -207,-17 -684,-222 -760,-472 311,139 1016,-174 1273,-322 359,-207 690,-381 1065,-556 -290,-155 -661,-356 -998,-356 -333,0 -649,132 -951,267 -159,71 -300,138 -477,138 -541,-1 -808,-347 -983,-837 226,84 486,185 755,154 216,-25 406,-100 608,-174 212,-78 463,-120 690,-120 360,0 631,189 893,417 -162,-673 -591,-1327 -1369,-1327 -362,0 -729,231 -1081,164 -453,-86 -731,-372 -834,-741 -58,-207 -53,-448 -11,-676 302,387 641,641 1142,683 318,27 629,-66 948,-34 328,32 565,128 805,368 111,111 244,364 260,395 60,-407 -82,-778 -371,-1049 -350,-329 -843,-482 -1324,-676 -397,-160 -720,-373 -856,-800 -170,-535 41,-1298 455,-1718 -29,394 60,826 282,1155 285,423 751,641 1157,925 826,578 934,1665 919,1863 96,-309 217,-642 225,-967 9,-404 -169,-885 -415,-1226 -419,-581 -809,-1071 -747,-1780 89,-1021 1047,-1762 1982,-2041 -5,32 -380,493 -493,709 -258,494 -409,898 -413,1454 -3,424 122,809 321,1181 289,543 514,1096 485,1703 -35,732 -644,1061 -821,1695 -158,567 461,698 856,715 387,17 599,207 872,479 273,-273 484,-463 872,-479 395,-17 1014,-148 856,-715 -177,-635 -786,-963 -821,-1695 -29,-607 196,-1160 485,-1703 198,-372 324,-758 321,-1181 -4,-556 -155,-960 -413,-1454 -113,-216 -488,-677 -493,-709 935,280 1893,1021 1982,2041 62,709 -328,1199 -747,1780 -246,341 -424,822 -415,1226 7,326 128,658 225,967 -15,-198 93,-1285 919,-1863 406,-284 872,-501 1157,-925 222,-330 311,-761 282,-1155 415,420 626,1183 455,1718 -136,427 -459,640 -856,800 -482,194 -974,347 -1324,676 -289,271 -431,642 -371,1049 16,-30 149,-284 260,-395 240,-240 478,-336 805,-368 319,-32 630,61 948,34 501,-42 840,-297 1142,-683 42,229 47,469 -11,676 -103,369 -381,655 -834,741 -352,67 -719,-164 -1081,-164 -777,0 -1207,655 -1369,1327 262,-227 534,-417 893,-417 227,0 478,43 690,120 202,74 392,149 608,174 269,31 529,-70 755,-154 -175,490 -442,836 -983,837 -177,0 -318,-67 -477,-138 -303,-135 -619,-267 -951,-267 -337,0 -708,201 -998,356 375,174 707,349 1065,556 257,148 962,461 1273,322 -76,251 -552,455 -760,472 -408,34 -653,-90 -936,-366 -355,-348 -597,-675 -1102,-625 -495,49 -743,368 -1052,697zm3229 -2638c339,-15 569,92 919,135 473,58 783,-96 1049,-299 -42,577 -529,899 -1041,840 -439,-51 -861,-275 -1303,-275 -175,0 -312,60 -472,130 82,-336 542,-516 848,-530zm617 -3815c-40,468 -371,713 -721,957 -472,328 -944,661 -1226,1181 22,-257 124,-511 273,-720 380,-534 801,-923 911,-1589 84,-510 -222,-1423 -384,-1727 143,34 354,218 458,321 468,461 744,938 689,1579zm-13 5663c209,12 360,-27 562,-93 -114,308 -406,491 -733,499 -263,7 -535,-95 -761,-271 -197,-153 -737,-423 -924,-421 255,-78 440,-118 710,-93 404,37 729,355 1147,379zm-7666 0c418,-23 743,-342 1147,-379 270,-25 455,15 710,93 -188,-2 -728,268 -924,421 -226,176 -498,278 -761,271 -326,-9 -618,-192 -733,-499 201,66 353,104 562,93zm-13 -5663c-55,-640 220,-1118 689,-1579 105,-103 315,-286 458,-321 -162,304 -469,1218 -384,1727 110,666 531,1055 911,1589 149,209 250,464 273,720 -281,-520 -754,-853 -1226,-1181 -351,-244 -681,-489 -721,-957zm617 3815c306,14 766,193 848,530 -159,-69 -296,-130 -472,-130 -442,0 -864,224 -1303,275 -512,60 -999,-263 -1041,-840 266,203 576,357 1049,299 351,-43 580,-150 919,-135zm79 -1099c-310,-32 -630,51 -940,0 -306,-50 -551,-153 -750,-336 -210,-193 -302,-348 -331,-618 -29,-267 70,-567 174,-819 31,340 217,676 463,907 116,109 249,214 418,286 301,129 680,217 954,333 190,80 517,230 625,413 -135,-52 -468,-152 -612,-167z"/>
  <path class="fil0" d="M3435 10996c0,249 -91,352 -241,352 -142,0 -237,-107 -237,-352l0 -597c0,-158 -143,-249 -276,-248l0 269 0 552c0,410 183,598 505,598 324,0 524,-191 524,-600l0 -550 0 -6 0 -263c-133,-1 -276,70 -276,248 0,179 0,398 0,597zm1156 -3215c90,-303 182,-706 212,-1102l458 -5957 115 127 -253 7081c-136,-85 -287,-138 -482,-146 -16,-1 -33,-2 -51,-3zm1015 -6960l224 7158c-106,77 -206,174 -316,284 -110,-110 -210,-207 -316,-284l224 -7158 93 -102 93 102zm297 7108l-253 -7081 115 -127 458 5957c30,396 122,799 212,1102 -17,1 -34,2 -50,3 -195,8 -346,61 -482,146zm-5430 4012l-102 0 0 483c0,159 -53,227 -137,227 -77,0 -132,-68 -132,-227l0 -483 -102 0 0 476c0,238 93,334 230,334 143,0 242,-100 242,-337l0 -473zm531 447c0,-177 -84,-235 -159,-235 -73,0 -123,49 -146,98l-3 0 -5 -85 -88 0c2,49 3,98 3,161l0 412 102 0 0 -346c0,-92 53,-141 103,-141 69,0 92,69 92,150l0 336 102 0 0 -351zm238 -381c0,-41 -24,-71 -59,-71 -35,0 -60,30 -60,71 0,39 24,70 59,70 37,0 60,-31 60,-70zm-9 158l-102 0 0 574 102 0 0 -574zm411 0l-78 306c-12,50 -24,97 -32,145l-3 0c-9,-48 -19,-96 -32,-146l-79 -305 -109 0 169 574 97 0 173 -574 -106 0zm517 466c-32,16 -68,27 -122,27 -76,0 -144,-49 -146,-178l306 0c2,-15 3,-31 3,-51 0,-142 -54,-276 -190,-276 -137,0 -217,136 -217,307 0,175 84,291 229,291 66,0 119,-16 153,-35l-17 -85zm-267 -238c5,-67 37,-154 111,-154 78,0 102,85 101,154l-212 0zm649 -237c-9,-2 -16,-3 -25,-3 -53,0 -103,45 -125,118l-4 0 -4 -105 -88 0c3,53 4,108 4,175l0 399 102 0 0 -304c0,-100 43,-167 111,-167 11,0 21,1 30,3l0 -116zm341 30c-26,-18 -67,-33 -115,-33 -102,0 -167,76 -167,172 0,67 38,124 123,165 58,29 78,53 78,97 0,44 -26,75 -81,75 -41,0 -86,-21 -110,-39l-23 90c32,23 81,39 131,39 109,0 180,-66 180,-176 0,-83 -42,-135 -122,-174 -59,-30 -81,-50 -81,-90 0,-39 25,-70 70,-70 39,0 73,18 92,32l23 -87zm227 -179c0,-41 -24,-71 -59,-71 -35,0 -60,30 -60,71 0,39 24,70 59,70 37,0 60,-31 60,-70zm-9 158l-102 0 0 574 102 0 0 -574zm151 0l-68 0 0 91 68 0 0 297c0,75 11,123 36,154 21,28 55,44 95,44 34,0 61,-5 79,-14l-4 -93c-12,4 -25,7 -45,7 -43,0 -61,-34 -61,-105l0 -291 115 0 0 -91 -115 0 0 -142 -101 37 0 104zm641 221c0,-122 -39,-233 -181,-233 -65,0 -122,22 -156,48l21 80c31,-24 74,-40 117,-40 97,0 97,85 97,128 -165,0 -270,71 -270,214 0,89 52,168 142,168 60,0 108,-34 135,-78l3 0 7 67 92 0c-6,-37 -7,-88 -7,-136l0 -217zm-99 159c0,67 -46,117 -101,117 -38,0 -71,-28 -71,-92 0,-102 92,-120 172,-120l0 95zm489 -359c-26,-18 -67,-33 -115,-33 -102,0 -167,76 -167,172 0,67 38,124 123,165 58,29 78,53 78,97 0,44 -26,75 -81,75 -41,0 -86,-21 -110,-39l-23 90c32,23 81,39 131,39 109,0 180,-66 180,-176 0,-83 -42,-135 -122,-174 -59,-30 -81,-50 -81,-90 0,-39 25,-70 70,-70 39,0 73,18 92,32l23 -87zm798 -245l-94 0 0 294c0,127 3,230 11,338l-3 1c-29,-85 -67,-176 -109,-264l-175 -369 -110 0 0 798 94 0 0 -298c0,-140 -2,-243 -7,-344l3 -1c31,90 71,184 111,270l176 373 102 0 0 -798zm471 690c-32,16 -68,27 -122,27 -76,0 -144,-49 -146,-178l306 0c2,-15 3,-31 3,-51 0,-142 -54,-276 -190,-276 -137,0 -217,136 -217,307 0,175 84,291 229,291 66,0 119,-16 153,-35l-17 -85zm-267 -238c5,-67 37,-154 111,-154 78,0 102,85 101,154l-212 0zm719 -228l-4 77 -2 0c-20,-46 -60,-90 -132,-90 -105,0 -204,108 -204,303 0,160 78,280 192,280 62,0 109,-35 134,-84l2 0 0 55c0,130 -56,182 -135,182 -54,0 -101,-20 -130,-41l-23 94c38,27 96,42 152,42 229,0 236,-211 236,-326l0 -327c0,-77 2,-125 4,-166l-90 0zm-16 334c0,96 -53,144 -105,144 -75,0 -118,-80 -118,-193 0,-123 49,-202 119,-202 62,0 104,63 104,139l0 113zm567 131c-32,16 -68,27 -122,27 -76,0 -144,-49 -146,-178l306 0c2,-15 3,-31 3,-51 0,-142 -54,-276 -190,-276 -137,0 -217,136 -217,307 0,175 84,291 229,291 66,0 119,-16 153,-35l-17 -85zm-267 -238c5,-67 37,-154 111,-154 78,0 102,85 101,154l-212 0zm649 -237c-9,-2 -16,-3 -25,-3 -53,0 -103,45 -125,118l-4 0 -4 -105 -88 0c3,53 3,108 3,175l0 399 102 0 0 -304c0,-100 43,-167 111,-167 11,0 21,1 30,3l0 -116zm189 -149c0,-41 -24,-71 -59,-71 -35,0 -60,30 -60,71 0,39 24,70 59,70 37,0 60,-31 60,-70zm-9 158l-102 0 0 574 102 0 0 -574zm670 -199c-29,-18 -77,-36 -141,-36 -133,0 -218,95 -218,221 0,108 67,180 167,228 80,40 114,81 114,149 0,72 -45,121 -124,121 -55,0 -109,-21 -145,-47l-23 101c32,26 99,48 162,48 151,0 234,-100 234,-234 0,-109 -52,-179 -159,-235 -85,-44 -123,-77 -123,-145 0,-51 33,-106 113,-106 55,0 97,21 119,35l25 -100zm521 199l-102 0 0 355c0,86 -54,130 -101,130 -67,0 -90,-66 -90,-165l0 -321 -102 0 0 341c0,183 73,245 156,245 78,0 125,-55 145,-95l3 0 5 83 89 0c-2,-46 -4,-100 -4,-164l0 -410zm373 -9c-9,-2 -16,-3 -25,-3 -53,0 -103,45 -125,118l-4 0 -4 -105 -88 0c3,53 3,108 3,175l0 399 102 0 0 -304c0,-100 43,-167 111,-167 11,0 21,1 30,3l0 -116zm417 230c0,-122 -39,-233 -181,-233 -65,0 -122,22 -156,48l21 80c31,-24 74,-40 117,-40 97,0 97,85 97,128 -165,0 -270,71 -270,214 0,89 52,168 142,168 60,0 108,-34 135,-78l3 0 7 67 92 0c-6,-37 -7,-88 -7,-136l0 -217zm-99 159c0,67 -46,117 -101,117 -38,0 -71,-28 -71,-92 0,-102 92,-120 172,-120l0 95zm328 -300l0 -342 -102 0 0 682c0,52 -2,115 -4,153l87 0 5 -86 3 0c32,68 81,98 143,98 100,0 202,-98 202,-307 0,-175 -76,-291 -186,-291 -67,0 -117,34 -146,93l-2 0zm0 154c0,-76 47,-150 111,-150 81,0 120,91 120,199 0,123 -43,205 -121,205 -67,0 -110,-69 -110,-142l0 -113zm772 -14c0,-122 -39,-233 -181,-233 -65,0 -122,22 -156,48l21 80c31,-24 74,-40 117,-40 97,0 97,85 97,128 -165,0 -270,71 -270,214 0,89 52,168 142,168 60,0 108,-34 135,-78l3 0 7 67 92 0c-6,-37 -7,-88 -7,-136l0 -217zm-99 159c0,67 -46,117 -101,117 -38,0 -71,-28 -71,-92 0,-102 92,-120 172,-120l0 95zm502 -380l-78 323c-9,39 -18,81 -25,115l-3 0c-7,-33 -17,-77 -26,-115l-88 -323 -111 0 165 529c4,11 5,19 5,25 0,16 -38,132 -143,177l26 102c24,-6 68,-26 112,-74 58,-67 98,-173 155,-362l116 -398 -107 0zm517 221c0,-122 -39,-233 -181,-233 -65,0 -122,22 -156,48l21 80c31,-24 74,-40 117,-40 97,0 97,85 97,128 -165,0 -270,71 -270,214 0,89 52,168 142,168 60,0 108,-34 135,-78l3 0 7 67 92 0c-6,-37 -7,-88 -7,-136l0 -217zm-99 159c0,67 -46,117 -101,117 -38,0 -71,-28 -71,-92 0,-102 92,-120 172,-120l0 95zm-3854 -2352c-67,-33 -172,-64 -308,-64 -310,0 -494,176 -494,406 0,182 134,313 351,404 159,67 228,127 228,227 0,104 -80,175 -233,175l-76 -5c-108,-7 -241,33 -288,152 67,40 211,79 352,79 334,0 522,-179 522,-422 0,-184 -103,-313 -332,-413 -175,-78 -246,-124 -246,-224 0,-78 66,-164 211,-155l73 4c110,7 228,-49 241,-165zm681 -44l-597 1399c111,47 255,37 317,-112l63 -151 436 0 63 151c62,149 206,159 317,112l-597 -1399zm-158 932l158 -382 158 382 -316 0zm-2112 242l0 -389 415 0 0 -220 -415 0 0 -338 385 0c146,0 204,-117 203,-226 -268,0 -596,0 -863,0l0 1399c268,0 596,0 863,0 1,-109 -57,-226 -203,-226l-385 0zm-752 -379l-794 -794 0 1399c121,1 258,-63 250,-225l0 -593 794 818 0 -1399c-121,-1 -250,63 -250,225l0 570z"/>
 </g>
</svg>
