<svg width="72" height="70" viewBox="0 0 72 70" fill="none" xmlns="http://www.w3.org/2000/svg">
<path d="M9 13.125V17.5H58.5V52.5H27V56.875H67.5V52.5H63V13.125H9ZM18.0045 19.6875C15.6197 19.6956 13.3349 20.6199 11.6481 22.259C9.96136 23.898 9.00949 26.1189 9 28.4375C9 33.2478 13.059 37.1875 18.0045 37.1875C20.3881 37.1783 22.6713 36.2533 24.3564 34.6142C26.0414 32.9752 26.9917 30.7549 27 28.4375C27 23.6316 22.9455 19.6875 18.0045 19.6875ZM31.5 21.875V26.25H42.75V21.875H31.5ZM47.25 21.875V26.25H54V21.875H47.25ZM18.0045 24.0625C20.511 24.0625 22.5 25.9941 22.5 28.4375C22.5 30.8875 20.5132 32.8125 18.0045 32.8125C15.4845 32.8125 13.5 30.8875 13.5 28.4375C13.5 25.9941 15.4867 24.0625 18.0045 24.0625ZM31.5 30.625V35H54V30.625H31.5ZM9 39.375V56.875H13.5V43.75H20.25V56.875H24.75V45.1894L29.394 47.5781C30.7103 48.2562 32.292 48.2541 33.606 47.5781V47.5825L41.5485 43.4984L39.4493 39.6266L31.5045 43.7106L24.5385 40.1362C23.5663 39.6369 22.4835 39.3756 21.384 39.375H9Z" fill="#1976D2"/>
</svg>
